<svg viewBox="0 0 24 24" fill="none" xmlns="http://www.w3.org/2000/svg">
  <path d="M12 2C10.8954 2 10 2.89543 10 4V6H14V4C14 2.89543 13.1046 2 12 2Z" stroke="currentColor" stroke-width="1.5" stroke-linecap="round" stroke-linejoin="round"/>
  <path d="M8 6V8C8 9.10457 8.89543 10 10 10H14C15.1046 10 16 9.10457 16 8V6" stroke="currentColor" stroke-width="1.5" stroke-linecap="round" stroke-linejoin="round"/>
  <path d="M6 12V18C6 19.1046 6.89543 20 8 20H16C17.1046 20 18 19.1046 18 18V12" stroke="currentColor" stroke-width="1.5" stroke-linecap="round" stroke-linejoin="round"/>
  <circle cx="9" cy="14" r="1" fill="currentColor"/>
  <circle cx="15" cy="14" r="1" fill="currentColor"/>
  <path d="M9 16H15" stroke="currentColor" stroke-width="1.5" stroke-linecap="round"/>
</svg>
